<svg width="32" height="32" viewBox="0 0 32 32" fill="none" xmlns="http://www.w3.org/2000/svg">
<path fill-rule="evenodd" clip-rule="evenodd" d="M11.5 15C11.7761 15 12 14.7761 12 14.5C12 14.2239 11.7761 14 11.5 14C11.2239 14 11 14.2239 11 14.5C11 14.7761 11.2239 15 11.5 15ZM11.5 17C12.8807 17 14 15.8807 14 14.5C14 13.1193 12.8807 12 11.5 12C10.1193 12 9 13.1193 9 14.5C9 15.8807 10.1193 17 11.5 17Z" fill="#404B4F"/>
<path d="M24 6H26V9H29V11H26V14H24V11H21V9H24V6Z" fill="#404B4F"/>
<path fill-rule="evenodd" clip-rule="evenodd" d="M18 9H3V25H27V18H26.4143L22.5001 14.0858L16.5001 20.0858L14.0001 17.5858L12.0001 19.5858L8.50008 16L5 19.24V11H18V9ZM22.5001 16.9142L25 19.4142V23H5V22.07L8.50008 18.83L12.0001 22.4142L14.0001 20.4142L16.5001 22.9142L22.5001 16.9142Z" fill="#404B4F"/>
</svg>
