<svg width="32" height="32" viewBox="0 0 32 32" fill="none" xmlns="http://www.w3.org/2000/svg">
<path d="M27.5 1.5H26V4.5H23V6L26 6V9H27.5V6L30.5 6V4.5H27.5V1.5Z" fill="#404B4F"/>
<path fill-rule="evenodd" clip-rule="evenodd" d="M27 17.5C27 23.8513 21.8513 29 15.5 29C9.14873 29 4 23.8513 4 17.5C4 11.1487 9.14873 6 15.5 6C21.8513 6 27 11.1487 27 17.5ZM25.2308 17.5C25.2308 19.5264 24.6113 21.4082 23.5515 22.9663C22.3201 21.5345 20.7134 20.4349 18.884 19.82C20.0591 18.8465 20.8077 17.376 20.8077 15.7308C20.8077 12.7994 18.4314 10.4231 15.5 10.4231C12.5686 10.4231 10.1923 12.7994 10.1923 15.7308C10.1923 17.376 10.9409 18.8464 12.116 19.82C10.2866 20.4348 8.67988 21.5345 7.4485 22.9662C6.38866 21.4082 5.76923 19.5264 5.76923 17.5C5.76923 12.1258 10.1258 7.76923 15.5 7.76923C20.8742 7.76923 25.2308 12.1258 25.2308 17.5ZM15.5 21.0385C18.2935 21.0385 20.7845 22.3333 22.4057 24.3556C20.6429 26.1312 18.1998 27.2308 15.5 27.2308C12.8001 27.2308 10.3571 26.1312 8.59423 24.3555C10.2154 22.3333 12.7065 21.0385 15.5 21.0385ZM11.9615 15.7308C11.9615 13.7765 13.5458 12.1923 15.5 12.1923C17.4542 12.1923 19.0385 13.7765 19.0385 15.7308C19.0385 17.685 17.4542 19.2692 15.5 19.2692C13.5458 19.2692 11.9615 17.685 11.9615 15.7308Z" fill="#404B4F"/>
</svg>
