<svg width="32" height="32" viewBox="0 0 32 32" fill="none" xmlns="http://www.w3.org/2000/svg">
<path fill-rule="evenodd" clip-rule="evenodd" d="M22.9995 11.0004V21.0001C23.0034 21.6215 22.595 21.9954 21.9995 22.0001C21.4043 22.0038 21.0034 21.6207 20.9995 21.0004V11.0004C20.9835 8.51583 18.3806 5.98368 15.9995 6.00012C13.6188 6.01687 10.9845 8.51647 11.0003 11.0001V23.0001C11.0101 24.4491 12.6118 26.0097 14.0003 26.0001C15.3891 25.9902 17.0093 24.4495 17.0003 23.0001V12.0001C16.9976 11.5857 16.3971 10.9976 16.0004 11.0001C15.6038 11.0029 14.998 11.586 15.0004 12.0001V21.0001C15.0046 21.6209 14.5958 21.9958 14.0003 22.0001C13.4056 22.0042 13.0044 21.6208 13.0003 21.0001V12.0001C12.9893 10.3441 14.4129 9.011 16.0004 9.00012C17.5876 8.98895 18.99 10.3441 19.0004 12.0001L19.0003 23.0001C19.0178 25.6906 16.5787 27.9821 14.0003 28.0001C11.4212 28.0184 9.0177 25.6906 9.00042 23.0001L9.00014 11.0001C8.97665 7.27441 12.4289 4.02466 15.9995 4.00012C19.5707 3.9753 22.9755 7.27465 22.9995 11.0004Z" fill="#404B4F"/>
</svg>
