<svg width="32" height="32" viewBox="0 0 32 32" fill="none" xmlns="http://www.w3.org/2000/svg">
<path fill-rule="evenodd" clip-rule="evenodd" d="M22.2694 23.6836C20.5666 25.0713 18.3869 25.9 16 25.9C10.5 25.9 6.1 21.5 6.1 16C6.1 13.6131 6.9287 11.4334 8.31636 9.73056L22.2694 23.6836ZM23.6837 22.2694L9.73057 8.31634C11.4334 6.92869 13.6131 6.1 16 6.1C21.5 6.1 25.9 10.5 25.9 16C25.9 18.3869 25.0713 20.5666 23.6837 22.2694ZM4 16C4 22.6 9.4 28 16 28C22.6 28 28 22.6 28 16C28 9.4 22.6 4 16 4C9.4 4 4 9.4 4 16Z" fill="#404B4F"/>
</svg>
