<svg width="32" height="32" viewBox="0 0 32 32" fill="none" xmlns="http://www.w3.org/2000/svg">
<path d="M3.7764 5.00006C3.35351 5.04569 2.99774 5.4545 3.00001 5.89221L3 19.1079C3.00005 19.575 3.41289 20 3.86667 20.0001H7V23.2404C7.00251 23.5712 7.19991 23.8925 7.4892 24.0366C7.77849 24.1807 8.14575 24.1407 8.3993 23.9374L13 20.1457V23.0001C13 23.4672 13.5462 24 14 24.0001H20L23 26.0001C23 26.0001 24.5 27.0001 25 27.0001C25.5 27.0001 26 26.5001 26 26.0001V24.0001H28C28.4538 24 29 23.4672 29 23.0001V12.0001C29 11.5329 28.4538 11.0001 28 11.0001H25C24.5 11.0001 24 11.5001 24 12.0001C24 12.5001 24.5 13.0001 25 13.0001H27V22.0001H25C24.5462 22.0001 24 22.5329 24 23.0001V24.5001L21.0764 22.1487C20.933 22.0509 20.7609 21.9984 20.5889 22.0001H15V20.0001H22.1333C22.5871 20 23 19.575 23 19.1079V5.89221C23 5.42509 22.5871 5.00011 22.1333 5.00006C16.1351 5.00006 9.76818 5.00006 3.7764 5.00006ZM5 7.00006H21V18.0001H13C12.8091 18.0001 12.6518 18.0659 12.5007 18.1859L9 21.0001V19.0001C8.99995 18.5329 8.45377 18.0001 8 18.0001H5V7.00006Z" fill="#404B4F"/>
</svg>
