<svg width="32" height="32" viewBox="0 0 32 32" fill="none" xmlns="http://www.w3.org/2000/svg">
<path fill-rule="evenodd" clip-rule="evenodd" d="M6 9.5C6 8.77909 6.53003 7.92275 7.83341 7.18959C9.10544 6.47407 10.9301 6 13 6C15.0699 6 16.8946 6.47407 18.1666 7.18959C19.47 7.92275 20 8.77909 20 9.5C20 10.0326 19.7107 10.6392 19.0338 11.2154C17.8181 11.4863 16.6951 12.0031 15.7197 12.711C14.8883 12.8956 13.9711 13 13 13C10.9301 13 9.10544 12.5259 7.83341 11.8104C6.53003 11.0773 6 10.2209 6 9.5ZM13.5215 14.9912C13.3487 14.997 13.1748 15 13 15C10.6516 15 8.47628 14.4667 6.85288 13.5536C6.7175 13.4774 6.58452 13.3976 6.45449 13.3144C6.14044 13.722 6 14.1289 6 14.5C6 15.2209 6.53003 16.0773 7.83341 16.8104C8.94479 17.4356 10.478 17.8764 12.2281 17.9778C12.4768 16.8946 12.9209 15.886 13.5215 14.9912ZM14.3094 17.9354C14.1113 18.5782 14.0033 19.2604 14.0001 19.9675C14 19.9783 14 19.9891 14 20C14 21.0343 14.2243 22.0161 14.6269 22.8996C14.934 23.5735 15.3449 24.1902 15.8391 24.7292C17.1187 26.1249 18.9572 27 21 27C24.866 27 28 23.866 28 20C28 16.3677 25.2335 13.3816 21.6926 13.0338C21.4648 13.0115 21.2337 13 21 13C19.3327 13 17.8015 13.5829 16.5991 14.5561C15.5319 15.42 14.7237 16.5914 14.3094 17.9354ZM21.6669 11.0243C21.8798 10.5541 22 10.0447 22 9.5C22 7.73563 20.7392 6.34197 19.1471 5.44644C17.5237 4.53328 15.3484 4 13 4C10.6516 4 8.47628 4.53328 6.85288 5.44644C5.26083 6.34197 4 7.73563 4 9.5C4 10.4466 4.36292 11.2865 4.9452 12C4.36292 12.7135 4 13.5534 4 14.5C4 15.4466 4.36292 16.2865 4.9452 17C4.36292 17.7135 4 18.5534 4 19.5C4 21.2644 5.26083 22.658 6.85288 23.5535C8.47628 24.4667 10.6516 25 13 25C13.1709 25 13.341 24.9972 13.5099 24.9916C15.1237 27.4083 17.8759 29 21 29C25.9706 29 30 24.9706 30 20C30 15.2537 26.326 11.3656 21.6669 11.0243ZM12.509 22.991C12.1793 22.0552 12 21.0486 12 20C12 19.9891 12 19.9783 12.0001 19.9675C10.0382 19.839 8.24314 19.3356 6.85288 18.5536C6.7175 18.4774 6.58451 18.3976 6.45449 18.3144C6.14043 18.7219 6 19.1289 6 19.5C6 20.2209 6.53003 21.0772 7.83341 21.8104C9.00386 22.4688 10.6422 22.9227 12.509 22.991Z" fill="#404B4F"/>
</svg>
