<svg width="32" height="32" viewBox="0 0 32 32" fill="none" xmlns="http://www.w3.org/2000/svg">
<path fill-rule="evenodd" clip-rule="evenodd" d="M11 10C12.1046 10 13 9.10457 13 8C13 6.89543 12.1046 6 11 6C9.89543 6 9 6.89543 9 8C9 9.10457 9.89543 10 11 10ZM11 18C12.1046 18 13 17.1046 13 16C13 14.8954 12.1046 14 11 14C9.89543 14 9 14.8954 9 16C9 17.1046 9.89543 18 11 18ZM13 24C13 25.1046 12.1046 26 11 26C9.89543 26 9 25.1046 9 24C9 22.8954 9.89543 22 11 22C12.1046 22 13 22.8954 13 24ZM21 10C22.1046 10 23 9.10457 23 8C23 6.89543 22.1046 6 21 6C19.8954 6 19 6.89543 19 8C19 9.10457 19.8954 10 21 10ZM23 16C23 17.1046 22.1046 18 21 18C19.8954 18 19 17.1046 19 16C19 14.8954 19.8954 14 21 14C22.1046 14 23 14.8954 23 16ZM21 26C22.1046 26 23 25.1046 23 24C23 22.8954 22.1046 22 21 22C19.8954 22 19 22.8954 19 24C19 25.1046 19.8954 26 21 26Z" fill="#404B4F"/>
</svg>
