<svg width="32" height="32" viewBox="0 0 32 32" fill="none" xmlns="http://www.w3.org/2000/svg">
<path d="M27.9605 13.1247C27.9131 12.9707 27.8246 12.8341 27.7055 12.7311C27.5865 12.6281 27.4418 12.5629 27.2885 12.5432L19.8763 11.5968L16.743 4.49237C16.6774 4.34371 16.5721 4.21813 16.44 4.13078C16.3078 4.04342 16.1543 3.99803 15.9981 4.00007C15.8437 3.99929 15.6923 4.04482 15.5617 4.1313C15.4312 4.21777 15.327 4.34158 15.2613 4.48813L12.124 11.5841L4.71172 12.5135C4.55857 12.5331 4.41394 12.5981 4.29486 12.701C4.17578 12.8038 4.0872 12.9402 4.03956 13.094C3.99192 13.2478 3.98721 13.4128 4.02596 13.5693C4.06472 13.7259 4.14534 13.8676 4.25832 13.9777L9.7234 19.3124L8.27009 26.9898C8.24094 27.1482 8.25546 27.312 8.31194 27.4621C8.36842 27.6122 8.46452 27.7423 8.589 27.8371C8.71347 27.932 8.86116 27.9877 9.01475 27.9977C9.16834 28.0078 9.32148 27.9717 9.45622 27.8938L15.986 24.0742L22.4995 27.8938C22.6233 27.9656 22.7629 28.0022 22.9043 27.9999C23.0249 28.0022 23.1445 27.9762 23.2543 27.9238C23.3641 27.8715 23.4614 27.7941 23.539 27.6973C23.6166 27.6005 23.6725 27.4867 23.7028 27.3643C23.7331 27.2419 23.7369 27.1139 23.714 26.9898L22.285 19.3082L27.7379 14.0117C27.8521 13.9017 27.9339 13.7596 27.9733 13.6024C28.0128 13.4452 28.0084 13.2793 27.9605 13.1247ZM20.8317 18.4042C20.7301 18.5021 20.6541 18.6257 20.6109 18.7631C20.5676 18.9005 20.5586 19.0472 20.5847 19.1893L21.7668 25.5553L16.3786 22.3766C16.2553 22.3032 16.1157 22.2652 15.9738 22.2662C15.8404 22.2705 15.7099 22.3084 15.5933 22.3766L10.197 25.5171L11.4115 19.1723C11.4381 19.0306 11.4297 18.8841 11.3872 18.7467C11.3447 18.6094 11.2695 18.4856 11.1686 18.3872L6.63462 13.9819L12.7596 13.2138C12.8967 13.197 13.0274 13.1437 13.1394 13.059C13.2513 12.9744 13.3407 12.8611 13.3992 12.73L15.9981 6.86476L18.589 12.7385C18.6481 12.8707 18.7388 12.9847 18.8522 13.0695C18.9657 13.1542 19.0981 13.2069 19.2367 13.2223L25.3616 14.0074L20.8317 18.4042Z" fill="#404B4F"/>
</svg>
