<svg width="32" height="32" viewBox="0 0 32 32" fill="none" xmlns="http://www.w3.org/2000/svg">
<path d="M13 17.1354V26C13 26.2726 13.1414 26.5249 13.3732 26.6686C13.4989 26.7464 13.6419 26.7857 13.7857 26.7857C13.9059 26.7857 14.0261 26.7582 14.1369 26.7032L18.5655 24.3461C18.8319 24.2125 19 23.9406 19 23.6429V17.1354L26.7399 10.2981C26.9057 10.1496 27 9.93743 27 9.71429V5.78571C27 5.352 26.6488 5 26.2143 5H5.78571C5.35121 5 5 5.352 5 5.78571V9.71429C5 9.93743 5.09429 10.1496 5.26007 10.2981L13 17.1354ZM7 7H25V9.36464L17.2601 16.2019C17.0943 16.3504 17 16.5626 17 16.7857V23L15 24V16.7857C15 16.5626 14.9057 16.3504 14.7399 16.2019L7 9.36464V7Z" fill="#404B4F"/>
</svg>
