<svg width="32" height="32" viewBox="0 0 32 32" fill="none" xmlns="http://www.w3.org/2000/svg">
<path d="M6 6H13V8L9.41424 8L14.7782 13.3639L13.364 14.7781L8 9.41418V13H6V6Z" fill="#404B4F"/>
<path d="M26 6V13H24V9.31378L18.5356 14.7782L17.1214 13.364L22.4854 8L19 8V6H26Z" fill="#404B4F"/>
<path d="M24 22.5859V19H26V26H19V24H22.5857L17.1212 18.5355L18.5355 17.1213L24 22.5859Z" fill="#404B4F"/>
<path d="M9.31354 24H13L13 26H6V19H8L8 22.4851L13.3638 17.1213L14.778 18.5355L9.31354 24Z" fill="#404B4F"/>
</svg>
