<svg width="32" height="32" viewBox="0 0 32 32" fill="none" xmlns="http://www.w3.org/2000/svg">
<path fill-rule="evenodd" clip-rule="evenodd" d="M14.2777 4.12413C8.48592 4.96584 4 9.98449 4 16C4 22.0155 8.48592 27.0342 14.2777 27.8759L14.2796 27.8776C14.8414 27.9583 15.4159 28 16 28C16.5842 28 17.1586 27.9583 17.7204 27.8776L17.7223 27.8759C23.5141 27.0342 28 22.0155 28 16C28 9.98449 23.5141 4.96584 17.7223 4.12413L17.7204 4.1224C17.1586 4.04174 16.5842 4 16 4C15.4158 4 14.8414 4.04174 14.2796 4.1224L14.2777 4.12413ZM15 17V20H11.5798C11.2938 19.0392 11.1082 18.0351 11.0352 17H15ZM9.03074 17C9.09422 18.0294 9.25503 19.0324 9.50407 20H6.93041C6.52252 19.0681 6.25352 18.0596 6.14901 17H9.03074ZM11.0352 15H15V12H11.5798C11.2938 12.9608 11.1082 13.9649 11.0352 15ZM9.50407 12C9.25503 12.9676 9.09422 13.9706 9.03074 15H6.14901C6.25352 13.9404 6.52252 12.9319 6.93041 12H9.50407ZM12.3473 10H15V6.20204C13.9184 7.30578 13.0181 8.58783 12.3473 10ZM11.7345 7.05134C11.1131 7.97068 10.5848 8.95807 10.163 10H8.10448C9.05448 8.74767 10.2973 7.73193 11.7345 7.05134ZM17 6.20203V10H19.6527C18.9819 8.58782 18.0816 7.30578 17 6.20203ZM21.837 10C21.4152 8.95807 20.8869 7.97068 20.2655 7.05134C21.7027 7.73193 22.9455 8.74767 23.8955 10H21.837ZM20.4202 12H17V15H20.9648C20.8918 13.9649 20.7062 12.9608 20.4202 12ZM22.9693 15C22.9058 13.9706 22.745 12.9676 22.4959 12H25.0696C25.4775 12.9319 25.7465 13.9404 25.851 15H22.9693ZM20.9648 17H17V20H20.4202C20.7062 19.0392 20.8918 18.0351 20.9648 17ZM22.4959 20C22.745 19.0324 22.9058 18.0294 22.9693 17H25.851C25.7465 18.0596 25.4775 19.0681 25.0696 20H22.4959ZM19.6527 22H17V25.798C18.0816 24.6942 18.9819 23.4122 19.6527 22ZM20.2655 24.9487C20.8869 24.0293 21.4152 23.0419 21.837 22H23.8955C22.9455 23.2523 21.7027 24.2681 20.2655 24.9487ZM15 25.798V22H12.3473C13.0181 23.4122 13.9184 24.6942 15 25.798ZM10.163 22H8.10448C9.05448 23.2523 10.2973 24.2681 11.7345 24.9487C11.1131 24.0293 10.5848 23.0419 10.163 22Z" fill="#404B4F"/>
</svg>
