<svg width="32" height="32" viewBox="0 0 32 32" fill="none" xmlns="http://www.w3.org/2000/svg">
<path fill-rule="evenodd" clip-rule="evenodd" d="M16 7.12472C13.2663 4.39159 8.83452 4.39178 6.10103 7.12526C3.36736 9.85894 3.36736 14.2911 6.10103 17.0248L16.0005 26.9243L25.9 17.0248C28.6337 14.2911 28.6337 9.85894 25.9 7.12526C23.1665 4.39178 18.7348 4.39159 16.0011 7.12472C16.0009 7.1249 16.0002 7.12453 16 7.12472C16.0002 7.1249 15.9998 7.12453 16 7.12472ZM16.0005 24.0958L24.4858 15.6105C26.4384 13.6579 26.4384 10.4921 24.4858 8.53948C22.5332 6.58686 19.3674 6.58686 17.4147 8.53948L16.0005 9.95369L14.5863 8.53948C12.6337 6.58686 9.46787 6.58686 7.51525 8.53948C5.56263 10.4921 5.56263 13.6579 7.51525 15.6105L16.0005 24.0958Z" fill="#404B4F"/>
</svg>
