<svg width="32" height="32" viewBox="0 0 32 32" fill="none" xmlns="http://www.w3.org/2000/svg">
<path fill-rule="evenodd" clip-rule="evenodd" d="M25.506 7.41421L24.0918 6L6.41413 23.6777L7.82834 25.0919L10.0521 22.8681C11.8273 23.5651 13.8503 24 16 24C19.5303 24 22.7253 22.8273 25.0508 21.2328C26.2139 20.4353 27.183 19.5162 27.87 18.557C28.5492 17.6085 29 16.5524 29 15.5C29 14.1249 28.2331 12.7322 27.1348 11.5459C26.2836 10.6265 25.1736 9.76331 23.8783 9.04191L25.506 7.41421ZM22.3991 10.5212L19.3445 13.5757C19.7494 14.1146 20 14.7717 20 15.5C20 17.596 18.0307 19 16 19C15.3846 19 14.7945 18.8785 14.2644 18.6558L11.616 21.3042C12.9639 21.74 14.446 22 16 22C19.0971 22 21.9021 20.9668 23.9198 19.5833C24.9282 18.8919 25.7165 18.129 26.244 17.3925C26.7792 16.6452 27 15.9917 27 15.5C27 14.8424 26.6031 13.9156 25.6672 12.9046C24.8706 12.0441 23.7534 11.2024 22.3991 10.5212ZM15.9214 16.9988C15.9474 16.9996 15.9736 17 16 17C17.283 17 18 16.1655 18 15.5C18 15.342 17.9654 15.1814 17.8946 15.0257L15.9214 16.9988Z" fill="#404B4F"/>
<path d="M5 15.5C5 15.0083 5.22082 14.3548 5.75603 13.6075C6.2835 12.871 7.07181 12.1081 8.08022 11.4167C10.0979 10.0332 12.9029 9 16 9C16.6358 9 17.2596 9.04352 17.8674 9.12485L18.1326 7.14252C17.4395 7.04976 16.7271 7 16 7C12.4697 7 9.27472 8.17265 6.94922 9.76716C5.78605 10.5647 4.817 11.4838 4.13001 12.443C3.45076 13.3915 3 14.4476 3 15.5C3 17.3776 4.42246 19.3164 6.34308 20.7928L7.56198 19.2072C5.80499 17.8566 5 16.4346 5 15.5Z" fill="#404B4F"/>
<path d="M14 15.5C14 14.8345 14.717 14 16 14V12C13.9693 12 12 13.404 12 15.5H14Z" fill="#404B4F"/>
</svg>
