<svg width="32" height="32" viewBox="0 0 32 32" fill="none" xmlns="http://www.w3.org/2000/svg">
<path d="M25 16C25 20.9706 20.9705 25 16 25C12.9591 25 10.2705 23.4919 8.6412 21.1829L6.95215 22.2577C8.93778 25.1233 12.2497 27 16 27C22.0751 27 27 22.0751 27 16C27 9.92487 22.0751 5 16 5C12.9624 5 10.2124 6.23121 8.22181 8.22181L7 7V11H11L9.63602 9.63602C11.2647 8.00735 13.5147 7 16 7C20.9705 7 25 11.0294 25 16Z" fill="#404B4F"/>
<path d="M15 10H17V16.8573L21.1963 19.28L20.1963 21.0121L15 18V10Z" fill="#404B4F"/>
</svg>
