<svg width="32" height="32" viewBox="0 0 32 32" fill="none" xmlns="http://www.w3.org/2000/svg">
<path fill-rule="evenodd" clip-rule="evenodd" d="M17 2H15V6H17V2ZM26.2423 6.41421L24.8281 5L21.9997 7.82843L23.4139 9.24264L26.2423 6.41421ZM6 6.41406L7.41421 4.99985L10.2426 7.82828L8.82843 9.24249L6 6.41406ZM3 14V16H7V14H3ZM29 16H25V14H29V16ZM10 15C10 11.6863 12.6863 9 16 9C19.3137 9 22 11.6863 22 15C22 17.0381 20.9848 18.8392 19.4279 19.9251L19.4125 19.9358L19.3976 19.9471C19.1625 20.1245 18.9776 20.3759 18.8343 20.6273C18.6819 20.8949 18.5402 21.2268 18.4186 21.6249C18.2337 22.2303 18.0882 23.0121 18.0289 24H18H17V16H19V14H17H15H13V16H15V24H14H13.9711C13.9118 23.0121 13.7663 22.2303 13.5814 21.6249C13.4598 21.2268 13.3181 20.8949 13.1657 20.6273C13.0224 20.3759 12.8375 20.1245 12.6024 19.9471L12.5875 19.9358L12.5721 19.9251C11.0152 18.8392 10 17.0381 10 15ZM12 25C12 23.6758 11.842 22.7767 11.6686 22.209C11.5818 21.925 11.4944 21.7339 11.4281 21.6176C11.4002 21.5688 11.3795 21.5389 11.3678 21.5232C9.33156 20.0749 8 17.693 8 15C8 10.5817 11.5817 7 16 7C20.4183 7 24 10.5817 24 15C24 17.693 22.6684 20.0749 20.6322 21.5232C20.6205 21.5389 20.5998 21.5688 20.5719 21.6176C20.5056 21.7339 20.4182 21.925 20.3314 22.209C20.158 22.7767 20 23.6758 20 25V26V28V30H18H14H12V28V26V25ZM14 28V26H18V28H14Z" fill="#404B4F"/>
</svg>
