<svg width="32" height="32" viewBox="0 0 32 32" fill="none" xmlns="http://www.w3.org/2000/svg">
<path d="M20.9531 4.07814C23.1198 4.1823 24.7969 4.82814 25.9844 6.01564C27.1719 7.20314 27.8177 8.88022 27.9219 11.0469C27.974 11.9636 28 13.6146 28 16C28 18.3854 27.974 20.0365 27.9219 20.9531C27.8177 23.1198 27.1719 24.7969 25.9844 25.9844C24.7969 27.1719 23.1198 27.8177 20.9531 27.9219C20.0365 27.974 18.3854 28 16 28C13.6146 28 11.9636 27.974 11.0469 27.9219C8.88022 27.8177 7.20314 27.1719 6.01564 25.9844C4.82814 24.7969 4.1823 23.1198 4.07814 20.9531C4.03184 20.1383 4.00612 18.7433 4.00098 16.768V15.2321C4.00612 13.2568 4.03184 11.8617 4.07814 11.0469C4.1823 8.88022 4.82814 7.20314 6.01564 6.01564C7.20314 4.82814 8.88022 4.1823 11.0469 4.07814C11.8617 4.03184 13.2568 4.00612 15.2321 4.00098H16.768C18.7433 4.00612 20.1383 4.03184 20.9531 4.07814ZM16 9.24877C14.1266 9.24877 12.533 9.90562 11.2193 11.2193C9.90562 12.533 9.24877 14.1266 9.24877 16C9.24877 17.8735 9.90562 19.467 11.2193 20.7807C12.533 22.0944 14.1266 22.7512 16 22.7512C17.8735 22.7512 19.467 22.0944 20.7807 20.7807C22.0944 19.467 22.7512 17.8735 22.7512 16C22.7512 14.1266 22.0944 12.533 20.7807 11.2193C19.467 9.90562 17.8735 9.24877 16 9.24877ZM16 11.6134C17.2109 11.6134 18.2447 12.0418 19.1015 12.8986C19.9582 13.7553 20.3866 14.7891 20.3866 16C20.3866 17.2109 19.9582 18.2447 19.1015 19.1015C18.2447 19.9582 17.2109 20.3866 16 20.3866C14.7891 20.3866 13.7553 19.9582 12.8986 19.1015C12.0418 18.2447 11.6134 17.2109 11.6134 16C11.6134 14.7891 12.0418 13.7553 12.8986 12.8986C13.7553 12.0418 14.7891 11.6134 16 11.6134ZM22.4063 8.15626C22.0104 8.15626 21.6719 8.29689 21.3906 8.57814C21.1094 8.85939 20.9688 9.19793 20.9688 9.59376C20.9688 9.98959 21.1094 10.3281 21.3906 10.6094C21.6719 10.8906 22.0104 11.0313 22.4063 11.0313C22.8021 11.0313 23.1406 10.8906 23.4219 10.6094C23.7031 10.3281 23.8438 9.98959 23.8438 9.59376C23.8438 9.19793 23.7031 8.85939 23.4219 8.57814C23.1406 8.29689 22.8021 8.15626 22.4063 8.15626Z" fill="#404B4F"/>
</svg>
