<svg width="32" height="32" viewBox="0 0 32 32" fill="none" xmlns="http://www.w3.org/2000/svg">
<path d="M9.45312 12.1485V27H4.29687V12.1485H9.45312ZM9.78125 7.56267C9.79167 8.29201 9.52865 8.90145 8.99219 9.39101C8.45573 9.88056 7.75 10.1253 6.875 10.1253H6.84375C5.98958 10.1253 5.30208 9.88056 4.78125 9.39101C4.26042 8.90145 4 8.29201 4 7.56267C4 6.82334 4.26823 6.2114 4.80469 5.72684C5.34115 5.24228 6.04167 5 6.90625 5C7.77083 5 8.46354 5.24228 8.98438 5.72684C9.50521 6.2114 9.77083 6.82334 9.78125 7.56267ZM28 18.4877V27H22.8594V19.0572C22.8594 18.0082 22.6484 17.1864 22.2266 16.592C21.8047 15.9975 21.1458 15.7003 20.25 15.7003C19.5938 15.7003 19.0443 15.8726 18.6016 16.2173C18.1589 16.562 17.8281 16.9891 17.6094 17.4986C17.4948 17.7984 17.4375 18.203 17.4375 18.7125V27H12.2969C12.3177 23.0136 12.3281 19.7816 12.3281 17.3038C12.3281 14.8261 12.3229 13.3474 12.3125 12.8678L12.2969 12.1485H17.4375V14.3065H17.4062C17.6146 13.9868 17.8281 13.7071 18.0469 13.4673C18.2656 13.2275 18.5599 12.9678 18.9297 12.688C19.2995 12.4083 19.7526 12.191 20.2891 12.0361C20.8255 11.8812 21.4219 11.8038 22.0781 11.8038C23.8594 11.8038 25.2917 12.3708 26.375 13.5048C27.4583 14.6387 28 16.2997 28 18.4877Z" fill="#404B4F"/>
</svg>
