<svg width="32" height="32" viewBox="0 0 32 32" fill="none" xmlns="http://www.w3.org/2000/svg">
<path d="M6.72734 10.876C6.75596 10.5822 6.64816 10.2918 6.43747 10.0941L4.28987 7.40211V7H10.9579L16.112 18.7619L20.6434 7H27V7.40211L25.1639 9.23396C25.0055 9.35965 24.927 9.56591 24.9598 9.77016V23.2298C24.927 23.4341 25.0055 23.6405 25.1639 23.766L26.9572 25.5979V26H17.9375V25.5979L19.795 23.7215C19.9776 23.5315 19.9776 23.4757 19.9776 23.1853V12.3057L14.8128 25.9554H14.1149L8.10173 12.3057V21.4539C8.05151 21.8385 8.17441 22.2258 8.43461 22.5038L10.8505 25.5533V25.9554H4V25.5533L6.41605 22.5038C6.67432 22.2252 6.78985 21.8353 6.72734 21.4539V10.876Z" fill="#404B4F"/>
</svg>
