<svg width="32" height="32" viewBox="0 0 32 32" fill="none" xmlns="http://www.w3.org/2000/svg">
<path d="M14.1437 17.936C14.4957 19.456 15.3117 20.256 16.4797 20.256C17.2797 20.256 17.8717 19.952 18.5277 19.216L19.9517 20.416C19.0557 21.696 17.7757 22.176 16.3837 22.176C13.9677 22.176 12.3837 20.464 11.9037 17.936H10.7197V16.688H11.7757C11.7597 16.544 11.7597 16.384 11.7597 16.24C11.7597 16.016 11.7597 15.808 11.7757 15.6H10.7197V14.336H11.9517C12.4637 11.92 13.9997 10.272 16.3357 10.272C17.7277 10.272 19.0717 10.704 19.9517 12.048L18.5277 13.232C17.8557 12.464 17.2317 12.208 16.4157 12.208C15.3277 12.208 14.5437 12.944 14.1917 14.336H17.8077V15.6H13.9997C13.9837 15.808 13.9837 16.016 13.9837 16.24C13.9837 16.4 13.9837 16.544 13.9997 16.688H17.8077V17.936H14.1437Z" fill="#404B4F"/>
<path fill-rule="evenodd" clip-rule="evenodd" d="M28 16C28 22.6274 22.6274 28 16 28C9.37258 28 4 22.6274 4 16C4 9.37258 9.37258 4 16 4C22.6274 4 28 9.37258 28 16ZM26 16C26 21.5228 21.5228 26 16 26C10.4772 26 6 21.5228 6 16C6 10.4772 10.4772 6 16 6C21.5228 6 26 10.4772 26 16Z" fill="#404B4F"/>
</svg>
