<svg width="32" height="32" viewBox="0 0 32 32" fill="none" xmlns="http://www.w3.org/2000/svg">
<path d="M17.616 22.912C15.216 22.912 13.584 21.088 13.056 18.184H19.368V16.816H12.888C12.864 16.528 12.864 16.24 12.864 15.928C12.864 15.52 12.888 15.112 12.912 14.728H19.368V13.36H13.104C13.68 10.624 15.192 8.92 17.448 8.92C18.912 8.92 19.992 9.376 21.096 10.552L22.488 9.352C21.192 7.624 19.344 7 17.4 7C13.92 7 11.616 9.592 10.92 13.36H9V14.728H10.728C10.704 15.112 10.68 15.52 10.68 15.928C10.68 16.24 10.68 16.528 10.704 16.816H9V18.184H10.848C11.496 22.12 13.896 24.832 17.544 24.832C19.512 24.832 21.288 24.136 22.488 22.528L21.12 21.304C20.112 22.36 19.056 22.912 17.616 22.912Z" fill="#404B4F"/>
</svg>
