<svg width="32" height="32" viewBox="0 0 32 32" fill="none" xmlns="http://www.w3.org/2000/svg">
<path fill-rule="evenodd" clip-rule="evenodd" d="M8 17C8.55228 17 9 16.5523 9 16C9 15.4477 8.55228 15 8 15C7.44772 15 7 15.4477 7 16C7 16.5523 7.44772 17 8 17ZM8 19C9.65685 19 11 17.6569 11 16C11 14.3431 9.65685 13 8 13C6.34315 13 5 14.3431 5 16C5 17.6569 6.34315 19 8 19Z" fill="#404B4F"/>
<path fill-rule="evenodd" clip-rule="evenodd" d="M16 17C16.5523 17 17 16.5523 17 16C17 15.4477 16.5523 15 16 15C15.4477 15 15 15.4477 15 16C15 16.5523 15.4477 17 16 17ZM16 19C17.6569 19 19 17.6569 19 16C19 14.3431 17.6569 13 16 13C14.3431 13 13 14.3431 13 16C13 17.6569 14.3431 19 16 19Z" fill="#404B4F"/>
<path fill-rule="evenodd" clip-rule="evenodd" d="M24 17C24.5523 17 25 16.5523 25 16C25 15.4477 24.5523 15 24 15C23.4477 15 23 15.4477 23 16C23 16.5523 23.4477 17 24 17ZM24 19C25.6569 19 27 17.6569 27 16C27 14.3431 25.6569 13 24 13C22.3431 13 21 14.3431 21 16C21 17.6569 22.3431 19 24 19Z" fill="#404B4F"/>
</svg>
