<svg width="32" height="32" viewBox="0 0 32 32" fill="none" xmlns="http://www.w3.org/2000/svg">
<path fill-rule="evenodd" clip-rule="evenodd" d="M7 24.9968L27.4268 4.57001L28.841 5.98422L26.8284 7.99679H28V23.9968H10.8284L8.41421 26.411L7 24.9968ZM26 21.9968H12.8284L15.2071 19.6181L16.2673 20.6783L16.2694 20.6762L17.3052 21.712L23.192 15.8253L26 18.6333V21.9968ZM26 15.8049L23.192 12.9968L17.3031 18.8857L16.6213 18.2039L24.8284 9.99679H26V15.8049Z" fill="#404B4F"/>
<path d="M4 7.99679H18V9.99679H6V18.2394L9.2426 14.9968L12.071 17.8252L10.6568 19.2394L9.2426 17.8252L6 21.0678V23.9968H4V7.99679Z" fill="#404B4F"/>
<path fill-rule="evenodd" clip-rule="evenodd" d="M12.5 15.9968C13.8807 15.9968 15 14.8775 15 13.4968C15 12.1161 13.8807 10.9968 12.5 10.9968C11.1193 10.9968 10 12.1161 10 13.4968C10 14.8775 11.1193 15.9968 12.5 15.9968ZM12.5 13.9968C12.7761 13.9968 13 13.7729 13 13.4968C13 13.2206 12.7761 12.9968 12.5 12.9968C12.2239 12.9968 12 13.2206 12 13.4968C12 13.7729 12.2239 13.9968 12.5 13.9968Z" fill="#404B4F"/>
</svg>
