<svg width="32" height="32" viewBox="0 0 32 32" fill="none" xmlns="http://www.w3.org/2000/svg">
<path fill-rule="evenodd" clip-rule="evenodd" d="M3.27783 27.3082L26.2778 3.30817L27.7218 4.69198L23.9998 8.57579V17.5859L26.9998 20.5859V25.0001H20.8977C20.7662 25.6669 20.4949 26.4127 20.0114 27.0844C19.226 28.1752 17.9257 29.0001 15.9998 29.0001C14.0739 29.0001 12.7737 28.1752 11.9883 27.0844C11.5047 26.4127 11.2334 25.6669 11.102 25.0001H8.25988L4.72181 28.692L3.27783 27.3082ZM10.1766 23.0001H24.9998V21.4143L21.9998 18.4143V10.6627L10.1766 23.0001ZM13.1625 25.0001C13.2596 25.3103 13.4051 25.6293 13.6114 25.9158C14.026 26.4916 14.7257 27.0001 15.9998 27.0001C17.2739 27.0001 17.9737 26.4916 18.3883 25.9158C18.5946 25.6293 18.74 25.3103 18.8372 25.0001H13.1625Z" fill="#404B4F"/>
<path d="M12.9998 4.00007V7.00007H7.99982V17.5859L5.29271 20.293L6.70693 21.7072L9.99982 18.4143V9.00007H14.9998V6.00007H16.9998V9.00007H18.9998V4.00007H12.9998Z" fill="#404B4F"/>
</svg>
