<svg width="32" height="32" viewBox="0 0 32 32" fill="none" xmlns="http://www.w3.org/2000/svg">
<path fill-rule="evenodd" clip-rule="evenodd" d="M22.3638 7.63602C18.8669 4.13907 13.1328 4.13907 9.63589 7.63602C6.13895 11.133 6.13895 16.867 9.63589 20.3639L15.9999 26.7279L22.3638 20.3639C25.8608 16.867 25.8608 11.133 22.3638 7.63602ZM15.9999 29.5563L8.22168 21.7782C3.94368 17.5002 3.94368 10.4998 8.22168 6.2218C12.4997 1.94381 19.5 1.94381 23.778 6.2218C28.056 10.4998 28.056 17.5002 23.778 21.7782L15.9999 29.5563ZM19.9997 14C19.9997 16.2091 18.2088 18 15.9997 18C13.7906 18 11.9997 16.2091 11.9997 14C11.9997 11.7908 13.7906 9.99995 15.9997 9.99995C18.2088 9.99995 19.9997 11.7908 19.9997 14ZM17.9997 14C17.9997 15.1045 17.1043 16 15.9997 16C14.8951 16 13.9997 15.1045 13.9997 14C13.9997 12.8954 14.8951 12 15.9997 12C17.1043 12 17.9997 12.8954 17.9997 14Z" fill="#404B4F"/>
</svg>
