<svg width="32" height="32" viewBox="0 0 32 32" fill="none" xmlns="http://www.w3.org/2000/svg">
<path fill-rule="evenodd" clip-rule="evenodd" d="M12.0623 12.0623C12.0212 12.369 12 12.682 12 13C12 16.866 15.134 20 19 20C19.318 20 19.631 19.9788 19.9377 19.9377C19.9788 19.631 20 19.318 20 19C20 15.134 16.866 12 13 12C12.682 12 12.369 12.0212 12.0623 12.0623ZM12.6708 10.0059C12.7801 10.002 12.8898 10 13 10C17.9706 10 22 14.0294 22 19C22 19.1102 21.998 19.2199 21.9941 19.3292C24.3622 18.2069 26 15.7947 26 13C26 9.13401 22.866 6 19 6C16.2053 6 13.7931 7.63778 12.6708 10.0059ZM21.6144 21.6144C20.4943 25.3099 17.0613 28 13 28C8.02944 28 4 23.9706 4 19C4 14.9387 6.69007 11.5057 10.3856 10.3856C11.5057 6.69007 14.9387 4 19 4C23.9706 4 28 8.02944 28 13C28 17.0613 25.3099 20.4943 21.6144 21.6144ZM19.3292 21.9941C19.2199 21.998 19.1102 22 19 22C14.0294 22 10 17.9706 10 13C10 12.8898 10.002 12.7801 10.0059 12.6708C7.63778 13.7931 6 16.2053 6 19C6 22.866 9.13401 26 13 26C15.7947 26 18.2069 24.3622 19.3292 21.9941Z" fill="#404B4F"/>
</svg>
