<svg width="32" height="32" viewBox="0 0 32 32" fill="none" xmlns="http://www.w3.org/2000/svg">
<path d="M4.06731 6.70555L8.17663 15.984L4.07731 25.2581C3.88772 25.6375 3.98285 26.0646 4.29143 26.3732C4.57628 26.6581 5.00337 26.7532 5.4066 26.5873L27.987 16.92C28.3428 16.7541 28.6036 16.3983 28.5796 15.995C28.5794 15.6154 28.342 15.2357 27.986 15.0694L5.39516 5.3777C4.99176 5.21142 4.56477 5.30608 4.28023 5.59062C3.97198 5.89887 3.90105 6.3496 4.06731 6.70555ZM25.021 15.9931L6.97087 23.7413L9.83804 17.266L15.0574 17.2688C15.6268 17.2692 16.0773 16.8186 16.0533 16.273C16.053 15.7036 15.602 15.2526 15.0563 15.276L10.0742 15.2259L6.96251 8.22548L25.021 15.9931Z" fill="#404B4F"/>
</svg>
