<svg width="32" height="32" viewBox="0 0 32 32" fill="none" xmlns="http://www.w3.org/2000/svg">
<path fill-rule="evenodd" clip-rule="evenodd" d="M21 16C21 18.7614 18.7614 21 16 21C13.2386 21 11 18.7614 11 16C11 13.2386 13.2386 11 16 11C18.7614 11 21 13.2386 21 16ZM19 16C19 17.6569 17.6569 19 16 19C14.3431 19 13 17.6569 13 16C13 14.3431 14.3431 13 16 13C17.6569 13 19 14.3431 19 16Z" fill="#404B4F"/>
<path fill-rule="evenodd" clip-rule="evenodd" d="M18.8332 6.40753V4H13.1665V6.40763C12.4846 6.60881 11.8331 6.88061 11.2206 7.21435L9.51753 5.51125L5.51059 9.51819L7.21389 11.2215C6.88034 11.8337 6.60869 12.485 6.40759 13.1666H3.99951V18.8333H6.40757C6.60868 19.515 6.88036 20.1663 7.21396 20.7787L5.51088 22.4817L9.51782 26.4887L11.2208 24.7857C11.8332 25.1194 12.4846 25.3912 13.1665 25.5924V28H18.8332V25.5925C19.5149 25.3914 20.1662 25.1197 20.7785 24.7861L22.4812 26.4887L26.4881 22.4818L24.7856 20.7794C25.1194 20.1669 25.3912 19.5153 25.5924 18.8333H27.9995V13.1666H25.5924C25.3912 12.4847 25.1195 11.8332 24.7857 11.2208L26.4884 9.51811L22.4814 5.51117L20.7787 7.21396C20.1663 6.88034 19.5149 6.60865 18.8332 6.40753ZM11.2279 9.57859C12.2649 8.80665 13.4953 8.27999 14.8332 8.08448C14.9436 8.06835 15.0547 8.05444 15.1665 8.04286L15.1665 6H16.8332L16.8335 8.0429C16.9452 8.05446 17.0562 8.06832 17.1665 8.08443C18.5043 8.27987 19.7345 8.80638 20.7715 9.57812C20.8614 9.64502 20.9499 9.7137 21.0368 9.78423L22.4814 8.3396L23.66 9.51811L22.2157 10.9632C22.2861 11.05 22.3547 11.1383 22.4215 11.228C23.1934 12.265 23.72 13.4954 23.9155 14.8333C23.9317 14.9437 23.9455 15.0548 23.9571 15.1666H25.9995V16.8333L23.9571 16.8334C23.9455 16.9452 23.9317 17.0563 23.9155 17.1666C23.7201 18.5046 23.1934 19.7351 22.4214 20.7721C22.3547 20.8618 22.2856 20.9507 22.2152 21.0374L23.6597 22.4818L22.4812 23.6603L21.0366 22.2158C20.9497 22.2863 20.8613 22.3551 20.7714 22.422C19.7345 23.1937 18.5042 23.7201 17.1665 23.9156C17.0562 23.9317 16.9449 23.9456 16.8332 23.9571V26H15.1665V23.9571C15.0547 23.9455 14.9436 23.9317 14.8332 23.9155C13.4953 23.72 12.265 23.1934 11.228 22.4215C11.1383 22.3547 11.0495 22.2857 10.9627 22.2153L9.51782 23.6602L8.33931 22.4817L9.78428 21.0368C9.71375 20.9498 9.64502 20.8614 9.57812 20.7715C8.8064 19.7346 8.2799 18.5043 8.08445 17.1666C8.06833 17.0563 8.05445 16.9451 8.04288 16.8333H5.99951V15.1666H8.04288C8.05446 15.0548 8.06833 14.9437 8.08446 14.8333C8.27991 13.4957 8.80638 12.2655 9.57803 11.2286C9.64493 11.1387 9.71359 11.0502 9.78412 10.9633L8.33902 9.51819L9.51753 8.33968L10.9634 9.78418C11.05 9.71386 11.1382 9.64531 11.2279 9.57859Z" fill="#404B4F"/>
</svg>
