<svg width="32" height="32" viewBox="0 0 32 32" fill="none" xmlns="http://www.w3.org/2000/svg">
<path d="M23.484 2C21.0003 2 18.9678 4.03253 18.9678 6.51621C18.9678 7.0234 19.0516 7.51389 19.2078 7.9697L11.474 12.9941C10.6457 12.0751 9.45564 11.4838 8.129 11.4838C5.64533 11.4838 3.61279 13.5163 3.61279 16C3.61279 18.4837 5.64533 20.5162 8.129 20.5162C9.46096 20.5162 10.6593 19.9315 11.4878 19.0059L19.2078 24.0303C19.049 24.4899 18.9678 24.9723 18.9678 25.4838C18.9678 27.9675 21.0003 30 23.484 30C25.9676 30 28.0002 27.9675 28.0002 25.4838C28.0002 23.0001 25.9676 20.9676 23.484 20.9676C22.1574 20.9676 20.9676 21.5589 20.139 22.4779L12.4052 17.4535C12.5611 16.9973 12.6452 16.5069 12.6452 16C12.6452 15.4884 12.5639 15.0061 12.4052 14.5465L20.1252 9.52215C20.9537 10.4477 22.1521 11.0324 23.484 11.0324C25.9676 11.0324 28.0002 8.99988 28.0002 6.51621C28.0002 4.03253 25.9676 2 23.484 2ZM23.484 3.80632C24.9911 3.80632 26.1939 5.00876 26.1939 6.51621C26.1939 8.02333 24.9914 9.22609 23.484 9.22609C21.9769 9.22609 20.7741 8.02365 20.7741 6.51621C20.7741 5.00908 21.9765 3.80632 23.484 3.80632ZM8.12887 13.2904C9.63599 13.2904 10.8388 14.4928 10.8388 16.0002C10.8388 17.5074 9.63632 18.7101 8.12887 18.7101C6.62175 18.7101 5.41899 17.5077 5.41899 16.0002C5.41899 14.4928 6.62143 13.2904 8.12887 13.2904ZM23.484 22.7744C24.9911 22.7744 26.1939 23.9768 26.1939 25.4843C26.1939 26.9914 24.9914 28.1942 23.484 28.1942C21.9769 28.1942 20.7741 26.9917 20.7741 25.4843C20.7741 23.9772 21.9765 22.7744 23.484 22.7744Z" fill="#404B4F"/>
</svg>
