<svg width="32" height="32" viewBox="0 0 32 32" fill="none" xmlns="http://www.w3.org/2000/svg">
<path fill-rule="evenodd" clip-rule="evenodd" d="M5 6H8H10L10.4 9H27V11L25 17H23H11.4667L11.7333 19H25V21H12L12 21H10L8.26667 8H5V6ZM11.2 15H23.6667L25 11H10.6667L11.2 15ZM15 24C15 25.1046 14.1046 26 13 26C11.8954 26 11 25.1046 11 24C11 22.8954 11.8954 22 13 22C14.1046 22 15 22.8954 15 24ZM24 24C24 25.1046 23.1046 26 22 26C20.8954 26 20 25.1046 20 24C20 22.8954 20.8954 22 22 22C23.1046 22 24 22.8954 24 24Z" fill="#404B4F"/>
</svg>
