<svg width="32" height="32" viewBox="0 0 32 32" fill="none" xmlns="http://www.w3.org/2000/svg">
<path fill-rule="evenodd" clip-rule="evenodd" d="M5 15.5C5 15.0083 5.22082 14.3548 5.75603 13.6075C6.2835 12.871 7.07181 12.1081 8.08022 11.4167C10.0979 10.0332 12.9029 9 16 9C19.0971 9 21.9021 10.0332 23.9198 11.4167C24.9282 12.1081 25.7165 12.871 26.244 13.6075C26.7792 14.3548 27 15.0083 27 15.5C27 15.9917 26.7792 16.6452 26.244 17.3925C25.7165 18.129 24.9282 18.8919 23.9198 19.5833C21.9021 20.9668 19.0971 22 16 22C12.9029 22 10.0979 20.9668 8.08022 19.5833C7.07181 18.8919 6.2835 18.129 5.75603 17.3925C5.22082 16.6452 5 15.9917 5 15.5ZM16 7C12.4697 7 9.27472 8.17265 6.94922 9.76716C5.78605 10.5647 4.817 11.4838 4.13001 12.443C3.45076 13.3915 3 14.4476 3 15.5C3 16.5524 3.45076 17.6085 4.13001 18.557C4.817 19.5162 5.78605 20.4353 6.94922 21.2328C9.27472 22.8273 12.4697 24 16 24C19.5303 24 22.7253 22.8273 25.0508 21.2328C26.2139 20.4353 27.183 19.5162 27.87 18.557C28.5492 17.6085 29 16.5524 29 15.5C29 14.4476 28.5492 13.3915 27.87 12.443C27.183 11.4838 26.2139 10.5647 25.0508 9.76716C22.7253 8.17265 19.5303 7 16 7ZM14 15.5C14 14.8345 14.717 14 16 14C17.283 14 18 14.8345 18 15.5C18 16.1655 17.283 17 16 17C14.717 17 14 16.1655 14 15.5ZM16 12C13.9693 12 12 13.404 12 15.5C12 17.596 13.9693 19 16 19C18.0307 19 20 17.596 20 15.5C20 13.404 18.0307 12 16 12Z" fill="#404B4F"/>
</svg>
