<svg width="32" height="32" viewBox="0 0 32 32" fill="none" xmlns="http://www.w3.org/2000/svg">
<path d="M10 9H13V11H10V9Z" fill="#404B4F"/>
<path d="M13 13H10V15H13V13Z" fill="#404B4F"/>
<path d="M10 17H13V19H10V17Z" fill="#404B4F"/>
<path d="M13 21H10V23H13V21Z" fill="#404B4F"/>
<path d="M14 9H22V11H14V9Z" fill="#404B4F"/>
<path d="M22 13H14V15H22V13Z" fill="#404B4F"/>
<path d="M14 17H22V19H14V17Z" fill="#404B4F"/>
<path d="M22 21H14V23H22V21Z" fill="#404B4F"/>
<path fill-rule="evenodd" clip-rule="evenodd" d="M6 5V27H26V5H6ZM24 7H8V25H24V7Z" fill="#404B4F"/>
</svg>
