<svg width="32" height="32" viewBox="0 0 32 32" fill="none" xmlns="http://www.w3.org/2000/svg">
<path d="M8 8H10V14H8V8Z" fill="#404B4F"/>
<path d="M11 22C11 23.1046 10.1046 24 9 24C7.89543 24 7 23.1046 7 22C7 20.8954 7.89543 20 9 20C10.1046 20 11 20.8954 11 22Z" fill="#404B4F"/>
<path fill-rule="evenodd" clip-rule="evenodd" d="M26.0416 13.0711L21.1127 18H28V28H9C7.4467 28 6.05883 27.2917 5.14176 26.1805C5.09304 26.1214 5.04565 26.0613 4.99963 26C4.37194 25.1643 4 24.1256 4 23V4H14V10.9706L18.9706 6L26.0416 13.0711ZM6 6H12V23C12 24.6569 10.6569 26 9 26C7.34315 26 6 24.6569 6 23V6ZM19.1127 20L13.1127 26H26V20H19.1127ZM14 22.2843L23.2132 13.0711L18.9706 8.82843L14 13.799V22.2843Z" fill="#404B4F"/>
</svg>
