<svg width="32" height="32" viewBox="0 0 32 32" fill="none" xmlns="http://www.w3.org/2000/svg">
<path d="M27 9.12019C26.1979 9.48077 25.3314 9.72596 24.4004 9.85577C25.3743 9.27885 26.0404 8.4351 26.3984 7.32452C25.4674 7.8726 24.5078 8.24039 23.5195 8.42789C22.6458 7.47596 21.5501 7 20.2324 7C18.9863 7 17.9229 7.44351 17.042 8.33053C16.1611 9.21755 15.7207 10.2885 15.7207 11.5433C15.7207 11.9615 15.7565 12.3077 15.8281 12.5817C13.9805 12.4808 12.2474 12.012 10.6289 11.1755C9.01042 10.3389 7.63542 9.22115 6.50391 7.82212C6.08854 8.54327 5.88086 9.30769 5.88086 10.1154C5.88086 11.7596 6.53255 13.0216 7.83594 13.9014C7.16276 13.887 6.44661 13.6995 5.6875 13.3389V13.3822C5.6875 14.4639 6.04557 15.4267 6.76172 16.2704C7.47786 17.1142 8.35873 17.637 9.4043 17.8389C8.98893 17.9543 8.6237 18.012 8.30859 18.012C8.1224 18.012 7.8431 17.9832 7.4707 17.9255C7.77148 18.8341 8.30501 19.5841 9.07129 20.1755C9.83757 20.7668 10.7077 21.0697 11.6816 21.0841C10.0202 22.3822 8.15104 23.0312 6.07422 23.0312C5.70182 23.0312 5.34375 23.0096 5 22.9663C7.11979 24.3221 9.42578 25 11.918 25C13.5221 25 15.026 24.744 16.4297 24.232C17.8333 23.72 19.0365 23.0349 20.0391 22.1767C21.0417 21.3185 21.9046 20.3305 22.6279 19.2127C23.3512 18.095 23.8883 16.9267 24.2393 15.7079C24.5902 14.4892 24.7656 13.274 24.7656 12.0625C24.7656 11.8029 24.7585 11.6082 24.7441 11.4784C25.6465 10.8293 26.3984 10.0433 27 9.12019Z" fill="#404B4F"/>
</svg>
