<svg width="32" height="32" viewBox="0 0 32 32" fill="none" xmlns="http://www.w3.org/2000/svg">
<path fill-rule="evenodd" clip-rule="evenodd" d="M16 6.1C21.5 6.1 25.9 10.5 25.9 16C25.9 18.6153 24.9051 20.9818 23.2702 22.7449C21.3318 21.0364 18.7869 20 16 20C13.213 20 10.6682 21.0364 8.72977 22.7449C7.09485 20.9818 6.1 18.6153 6.1 16C6.1 10.5 10.5 6.1 16 6.1ZM16 4C9.4 4 4 9.4 4 16C4 22.6 9.4 28 16 28C22.6 28 28 22.6 28 16C28 9.4 22.6 4 16 4ZM21 14C21 16.7614 18.7614 19 16 19C13.2386 19 11 16.7614 11 14C11 11.2386 13.2386 9 16 9C18.7614 9 21 11.2386 21 14Z" fill="#404B4F"/>
</svg>
