<svg width="32" height="32" viewBox="0 0 32 32" fill="none" xmlns="http://www.w3.org/2000/svg">
<path fill-rule="evenodd" clip-rule="evenodd" d="M16 29C23.1797 29 29 23.1797 29 16C29 8.8203 23.1797 3 16 3C8.8203 3 3 8.8203 3 16C3 23.1797 8.8203 29 16 29ZM25.1017 22.1793C26.2998 20.418 27 18.2908 27 16C27 9.92487 22.0751 5 16 5C9.92487 5 5 9.92487 5 16C5 18.3256 5.72172 20.4827 6.9534 22.2595C6.93492 22.2328 6.91655 22.206 6.8983 22.1792C8.2903 20.5607 10.1066 19.3176 12.1746 18.6226C10.8462 17.5221 10 15.8599 10 14C10 10.6863 12.6863 8 16 8C19.3137 8 22 10.6863 22 14C22 15.8599 21.1538 17.5221 19.8253 18.6226C21.8934 19.3177 23.7097 20.5608 25.1017 22.1793ZM23.8065 23.7498C21.9738 21.4637 19.1578 20 16 20C12.8421 20 10.0261 21.4637 8.19348 23.7497C10.1863 25.757 12.948 27 16 27C19.052 27 21.8137 25.7571 23.8065 23.7498ZM16 10C13.7909 10 12 11.7909 12 14C12 16.2091 13.7909 18 16 18C18.2091 18 20 16.2091 20 14C20 11.7909 18.2091 10 16 10Z" fill="#404B4F"/>
</svg>
