<svg width="32" height="32" viewBox="0 0 32 32" fill="none" xmlns="http://www.w3.org/2000/svg">
<path fill-rule="evenodd" clip-rule="evenodd" d="M6 23V10H22V12.1569V16V19.8431V23H6ZM24 20.7451V24.5C24 24.7761 23.7761 25 23.5 25H4.5C4.22386 25 4 24.7761 4 24.5V8.5C4 8.22386 4.22386 8 4.5 8H23.5C23.7761 8 24 8.22386 24 8.5V11.2549L27 9.90196L27.0051 9.89968L27.2838 9.77398L28.2944 9.31819C28.6254 9.16896 29 9.41098 29 9.77398V10.8827V11.1884V11.194V20.806V20.8116V21.1173V22.226C29 22.589 28.6254 22.831 28.2944 22.6818L27.2838 22.226L27.0051 22.1003L27 22.098L24 20.7451ZM24 18.5511L27 19.9041V12.0959L24 13.4489V16V18.5511Z" fill="#404B4F"/>
</svg>
