<svg width="32" height="32" viewBox="0 0 32 32" fill="none" xmlns="http://www.w3.org/2000/svg">
<path fill-rule="evenodd" clip-rule="evenodd" d="M19.1698 17.2974C19.4207 17.3884 20.7663 18.0473 21.04 18.1836C21.0934 18.2102 21.1432 18.2342 21.1895 18.2564C21.3805 18.3483 21.5095 18.4103 21.5646 18.5018C21.633 18.6154 21.633 19.1608 21.405 19.7971C21.1768 20.4334 20.0834 21.0141 19.5575 21.0923C19.086 21.1625 18.4893 21.1917 17.8336 20.9843C17.4361 20.8589 16.9263 20.6912 16.2733 20.4106C13.7074 19.3079 11.9733 16.8328 11.6456 16.3651C11.6227 16.3323 11.6066 16.3094 11.5977 16.2975L11.5954 16.2945C11.4503 16.1019 10.48 14.8133 10.48 13.4797C10.48 12.225 11.0993 11.5674 11.3844 11.2646C11.4039 11.2438 11.4219 11.2248 11.438 11.2073C11.6888 10.9346 11.9854 10.8664 12.1678 10.8664C12.3503 10.8664 12.5329 10.8681 12.6924 10.876C12.7121 10.877 12.7326 10.8769 12.7538 10.8768C12.9133 10.8759 13.1121 10.8748 13.3082 11.3436C13.3834 11.5233 13.4931 11.7893 13.609 12.0701C13.845 12.6417 14.1062 13.2748 14.1521 13.3662C14.2206 13.5025 14.2662 13.6616 14.1749 13.8434C14.1732 13.8469 14.1715 13.8502 14.1698 13.8536C14.158 13.8772 14.147 13.8996 14.1364 13.9211C14.0679 14.0603 14.0175 14.1627 13.9012 14.2978C13.8555 14.3509 13.8083 14.4081 13.7611 14.4654C13.6669 14.5795 13.5727 14.6937 13.4907 14.775C13.3537 14.9109 13.211 15.0583 13.3706 15.3309C13.5303 15.6037 14.0796 16.4957 14.8933 17.2179C15.7679 17.9943 16.528 18.3225 16.9134 18.4889C16.9887 18.5214 17.0496 18.5477 17.0944 18.57C17.368 18.7064 17.5277 18.6835 17.6873 18.5018C17.847 18.32 18.3715 17.7064 18.554 17.4337C18.7365 17.1611 18.9189 17.2065 19.1698 17.2974ZM16.0459 5C18.9762 5.00115 21.7266 6.13645 23.7947 8.19706C25.8628 10.2576 27.0011 12.9966 27 15.9095C26.9976 21.9203 22.0831 26.8109 16.046 26.8109H16.0415C14.2082 26.8103 12.4068 26.3525 10.8069 25.484L5 27L6.55401 21.3509C5.5954 19.6976 5.09102 17.8222 5.09181 15.9008C5.09423 9.8901 10.0082 5 16.0459 5Z" fill="#404B4F"/>
</svg>
