<svg width="176" height="64" viewBox="0 0 176 64" fill="none" xmlns="http://www.w3.org/2000/svg">
    <path fill-rule="evenodd" clip-rule="evenodd"
        d="M169.6 26.8C165.9 30.7 160 34.3 152 34.5C142.5 34.8 137.5 34.2 125.8 29.1C128.1 25.9 129 22.7 129.1 19.1C129.3 14.2 127.1 10 122.7 7.3C118 4.4 115.1 3 115.1 3C117.4 4.3 118.9 7.6 119.5 11.9C120.3 17.7 118.8 24.8 112.1 29.2L120.9 44.7C114.3 44 109.8 47.5 109.8 47.5L118.3 54.7C118.3 54.7 125.5 50.1 136.9 52.4L123.1 33.3C133.5 39 149.8 42.5 149.8 42.5C149.8 42.5 143.8 42.6 138.9 41.2C137.4 40.8 136.1 41.2 138.1 42.3C138.6 42.6 144.8 45.7 150.7 46.4C161.3 47.5 165.3 43.4 166.2 42C167.173 40.4709 165.924 40.5843 163.225 40.8292L163.225 40.8292C162.041 40.9367 160.577 41.0695 158.9 41.1C153.4 41.1 147.9 39.4 145.5 38.1C154.7 38 171.6 36.3 172.2 30.8C172.3 29.4 171.3 27.5 169.6 26.8ZM43.3 16.4C36.3 16.4 32.1 14 35.2 7.3C35.5 7 36 6 35 6.3C30.6 7.6 16.7 14.7 35.7 21.8C33.9 22.2 31.7 22.4 28.8 22.4C24.5857 22.4 18.5465 21.0553 17.4601 20.8134L17.4 20.8C15.8 20.4 15.8 21.8 17.2 23.4C21.2 27.8 34.4 32 44.5 30.9C50.1 30.3 56.6 26.1 56.6 26.1C55.1736 25.1194 52.5552 26.0461 51.1535 26.5422L51.1533 26.5423L51.1527 26.5425L51.1523 26.5426C50.9821 26.6028 50.8299 26.6567 50.7 26.7C46.2 28 43 26.8 42 25.3C42.9 25 43.8 24.7 44.6 24.3C66.6 15.1 73.4 14 94.6 20.6C78.8 18.2 62.8 26 55.5 31C52.8 32.9 52.9 34.7 55.3 33.6C56.0028 33.3072 56.6026 33.0229 57.1473 32.7648C58.4628 32.1415 59.4563 31.6707 60.8 31.6C63.2 31.4 66.2 33 67.7 33.8C73.6086 36.6723 80.5948 31.2609 84.7899 28.0116C85.7067 27.3015 86.4902 26.6946 87.1 26.3C89.9 24.4 93.4 22.5 96.6 24.6C96.6 24.6 100.8 23.6 104.1 22.7C74.3447 6.84057 60.9582 11.3424 51.5787 14.4967C48.5385 15.5192 45.9192 16.4 43.3 16.4ZM96.6 34L102.4 32.6L105.7 39.3V57.3C105.7 57.3 101.8 61.1 95.6 59.8L87.1 52.6C92.3 53.9 96.6 50.6 96.6 50.6V34ZM109.4 19.3C110 17.9 110.2 16.1 110 14.4C109.9 13.7 109.7 13 109.5 12.3C108.431 9.67635 105.568 10.2631 104.948 10.3902L104.9 10.4L96.6 12.4C96.6 12.4 91.1 8.4 87.1 6.8C85.1 6 84 5.7 82 5.5C78.6 5.2 75.9 8.4 79.1 8.7C85.8 9.3 96.9 15.1 108.1 21.2C108.361 21.0258 108.547 20.7759 108.788 20.45L108.788 20.45C108.824 20.4017 108.861 20.3517 108.9 20.3C108.971 20.1583 109.042 20.0292 109.108 19.9082L109.108 19.9081C109.229 19.6874 109.335 19.4937 109.4 19.3ZM3.69997 14.4C1.79997 12.5 4.29997 9.9 7.49997 11.9C9.39997 13 10.4 14.5 11.5 17.1C12.1102 18.5917 11.755 18.3364 10.9642 17.7679C10.5887 17.498 10.1151 17.1576 9.59997 16.9C7.77426 16.0106 6.71556 15.7785 5.94171 15.609C5.06249 15.4163 4.55096 15.3042 3.69997 14.4Z"
        fill="#00811F" />
</svg>
    